<?xml version="1.0" encoding="utf-8"?>
<!-- Generator: Adobe Illustrator 19.2.1, SVG Export Plug-In . SVG Version: 6.00 Build 0)  -->
<svg version="1.1" id="レイヤー_1" xmlns="http://www.w3.org/2000/svg" xmlns:xlink="http://www.w3.org/1999/xlink" x="0px"
	 y="0px" viewBox="0 0 56.7 42.5" style="enable-background:new 0 0 56.7 42.5;" xml:space="preserve">
<style type="text/css">
	.st0{fill:#0068B7;}
</style>
<g id="レイヤー_1_1_">
	<title>tpu logo</title>
	<path class="st0" d="M31.8,22v0.6h-1v3H30v-3h-1V22H31.8L31.8,22z M35,25.3c0.7-0.8,0.7-2,0-2.9c-0.7-0.6-1.7-0.6-2.4,0
		c-0.7,0.8-0.7,2,0,2.9C33.3,25.9,34.3,25.9,35,25.3 M34.5,24.9c-0.4,0.3-0.9,0.3-1.3,0c-0.5-0.6-0.5-1.4,0-2c0.4-0.3,0.9-0.3,1.3,0
		C34.9,23.4,34.9,24.3,34.5,24.9 M38.1,22l-0.7,1.5L36.7,22h-0.8l1.2,2.3v1.3h0.7v-1.3l1.1-2.3H38.1z M41,22h-0.8L39,25.6h0.8
		l0.2-0.7h1.3l0.2,0.7h0.8L41,22z M40.6,22.9l0.5,1.4h-0.9L40.6,22.9z M44.8,25.6l0.6-2.9v2.9h0.7V22H45l-0.7,2.8L43.8,22h-1.1v3.6
		h0.7v-2.9l0.6,2.9H44.8L44.8,25.6z M48.7,22h-0.8l-1.2,3.6h0.8l0.2-0.7H49l0.2,0.7H50L48.7,22z M48.2,22.9l0.5,1.4h-0.9L48.2,22.9z
		 M29.2,31.3H30v-1.2h0.9c0.4,0,0.8-0.2,1-0.6c0.1-0.4,0.1-0.7,0-1.1c-0.2-0.4-0.6-0.6-1-0.6h-1.6L29.2,31.3L29.2,31.3z M30,28.3
		h0.8c0.2,0,0.4,0.1,0.5,0.3c0.1,0.2,0.1,0.3,0,0.5s-0.2,0.3-0.4,0.3H30V28.3L30,28.3z M32.7,31.3h0.7v-1.5c0-0.3,0.3-0.6,0.7-0.5
		c0.1,0,0.1,0,0.2,0v-0.7c-0.2,0-0.4,0-0.5,0.1c-0.2,0.1-0.3,0.2-0.3,0.4l0,0v-0.5h-0.7L32.7,31.3L32.7,31.3z M37.2,30.2
		c0-0.4,0-0.7-0.2-1.1c-0.2-0.3-0.6-0.5-1-0.5c-0.6,0-1.2,0.4-1.2,1.1l0,0c0,0.2,0,0.4,0,0.6c0,0.1,0,0.2,0,0.3
		c0.1,0.3,0.3,0.5,0.5,0.6s0.4,0.2,0.7,0.2c0.5,0,1-0.4,1.2-0.9h-0.7c-0.1,0.2-0.2,0.3-0.4,0.3c-0.3,0.1-0.6-0.1-0.7-0.4
		c0-0.1,0-0.1,0-0.2H37.2L37.2,30.2z M35.4,29.8c0-0.3,0.2-0.5,0.5-0.6H36c0.3,0,0.5,0.2,0.5,0.5l0,0h-1.1V29.8z M37.6,29.2H38v2.2
		h0.7v-2.1h0.4v-0.4h-0.4v-0.3c0-0.1,0-0.2,0.1-0.2l0,0H39v-0.5h-0.4c-0.3,0-0.6,0.2-0.7,0.5v0.1v0.3h-0.4L37.6,29.2L37.6,29.2z
		 M42,30.2c0-0.4,0-0.7-0.2-1.1c-0.2-0.3-0.6-0.5-1-0.5c-0.6,0-1.2,0.4-1.2,1.1l0,0c0,0.2,0,0.4,0,0.6c0,0.1,0,0.2,0,0.3
		c0.1,0.3,0.3,0.5,0.5,0.6s0.4,0.2,0.7,0.2c0.5,0,1-0.3,1.2-0.8h-0.7c-0.1,0.2-0.2,0.3-0.4,0.3s-0.5-0.1-0.6-0.2s-0.1-0.3-0.1-0.4
		L42,30.2L42,30.2z M40.3,29.7c0-0.3,0.2-0.5,0.5-0.6h0.1c0.3,0,0.5,0.2,0.5,0.5l0,0h-1.1V29.7z M45,29.7c0-0.3-0.2-0.7-0.5-0.9
		c-0.2-0.1-0.5-0.2-0.7-0.1c-0.5-0.1-1,0.3-1.1,0.8c-0.1,0.3-0.1,0.7-0.1,1c0.1,0.6,0.6,1,1.2,1c0.3,0,0.6-0.1,0.8-0.2
		c0.2-0.2,0.4-0.5,0.4-0.8h-0.7C44.2,31,44,31,43.8,31c-0.3,0-0.5-0.2-0.5-0.5l0,0c-0.1-0.3-0.1-0.5,0-0.8c0-0.2,0.2-0.4,0.5-0.4
		c0.2,0,0.5,0.1,0.5,0.4c0,0,0,0,0,0.1L45,29.7L45,29.7z M45.5,28.8v0.5h0.3V31c0,0.2,0.2,0.4,0.4,0.5c0.1,0,0.2,0,0.3,0
		s0.2,0,0.3-0.1V31h-0.3c-0.1,0-0.1-0.1-0.1-0.2v-1.5h0.4v-0.5h-0.4V28h-0.7v0.7L45.5,28.8L45.5,28.8z M50,28.7h-0.7v1.7
		c0,0.3-0.2,0.5-0.5,0.5l0,0c-0.2,0.1-0.4-0.1-0.5-0.3c0-0.1,0-0.2,0-0.2v-1.6h-0.7v1.9c0,0.5,0.3,0.9,0.8,0.9c0.1,0,0.1,0,0.2,0
		c0.3,0,0.6-0.2,0.7-0.5l0,0v0.3H50V28.7z M50.9,31.4h0.7v-1.5c0-0.3,0.3-0.6,0.6-0.6c0.1,0,0.1,0,0.2,0v-0.7
		c-0.4,0-0.7,0.2-0.8,0.6l0,0v-0.5h-0.7V31.4L50.9,31.4z M55.3,31.4L55.3,31.4c-0.1-0.2-0.2-0.3-0.2-0.4v-1.5c0-0.3-0.2-0.6-0.5-0.8
		c-0.2-0.1-0.4-0.1-0.6-0.1c-0.5-0.1-1,0.3-1.1,0.8c0,0.1,0,0.1,0,0.2h0.7c0-0.2,0.1-0.4,0.4-0.4c0,0,0,0,0.1,0
		c0.3,0,0.5,0.1,0.5,0.2s-0.1,0.2-0.2,0.3c-0.2,0.1-0.5,0.1-0.7,0.1c-0.4,0-0.8,0.4-0.8,0.8c-0.1,0.4,0.2,0.8,0.6,0.8
		c0.1,0,0.1,0,0.2,0c0.3,0,0.6-0.1,0.9-0.4c0,0.1,0,0.2,0.1,0.3h0.6V31.4z M54.5,30.3c0.1,0.3-0.1,0.6-0.4,0.6l0,0
		c-0.2,0.1-0.4,0-0.4-0.2l0,0c0-0.2,0.1-0.4,0.3-0.4l0,0c0.2,0,0.4-0.1,0.6-0.1L54.5,30.3L54.5,30.3z M56.7,27.8H56v3.6h0.7V27.8
		L56.7,27.8z M31.4,33.4v2.5c0,0.3-0.2,0.6-0.5,0.6h-0.1c-0.3,0.1-0.6-0.1-0.7-0.4c0-0.1,0-0.1,0-0.2v-2.5h-0.8v2.5
		c0,0.5,0.3,0.9,0.8,1.1c0.2,0.1,0.5,0.1,0.7,0.1s0.5,0,0.7-0.1c0.4-0.2,0.7-0.6,0.7-1.1v-2.5C32.2,33.4,31.4,33.4,31.4,33.4z
		 M33,37h0.7v-1.7c0-0.2,0.1-0.4,0.4-0.5h0.1c0.2,0,0.5,0.1,0.5,0.3c0,0.1,0,0.1,0,0.2V37h0.7v-1.8c0-0.5-0.3-0.9-0.8-0.9
		c-0.1,0-0.1,0-0.2,0c-0.3,0-0.5,0.2-0.7,0.5l0,0v-0.4H33V37z M36.3,37H37v-2.7h-0.7V37z M36.3,34H37v-0.6h-0.7V34z M37.6,34.3
		l0.9,2.7h0.7l0.9-2.7h-0.7l-0.6,2l-0.6-2H37.6L37.6,34.3z M43.1,35.8c0-0.4,0-0.7-0.2-1.1c-0.2-0.3-0.6-0.5-1-0.5
		c-0.6,0-1.2,0.4-1.2,1.1l0,0c0,0.2,0,0.4,0,0.6c0,0.2,0,0.3,0,0.3c0.1,0.3,0.3,0.5,0.5,0.6c0.6,0.4,1.4,0.2,1.8-0.4
		c0.1-0.1,0.1-0.2,0.1-0.3h-0.7c-0.1,0.2-0.2,0.3-0.4,0.3c-0.3,0.1-0.6-0.1-0.7-0.4c0-0.1,0-0.1,0-0.2L43.1,35.8L43.1,35.8z
		 M41.3,35.4c0-0.3,0.2-0.5,0.5-0.6h0.1c0.3,0,0.5,0.2,0.5,0.5c0,0,0,0,0,0.1H41.3z M43.8,37h0.7v-1.5c0-0.3,0.3-0.6,0.7-0.5
		c0.1,0,0.1,0,0.2,0v-0.7c-0.2,0-0.4,0-0.5,0.1c-0.2,0.1-0.3,0.2-0.3,0.4l0,0v-0.5h-0.7V37H43.8z M45.8,36.2c0,0.4,0.2,0.7,0.6,0.8
		c0.2,0.1,0.4,0.1,0.6,0.1c0.2,0,0.5,0,0.7-0.1c0.4-0.1,0.6-0.5,0.6-0.9c0-0.3-0.2-0.6-0.5-0.6l-1-0.3c-0.1,0-0.2-0.1-0.2-0.2
		c0-0.1,0.1-0.1,0.1-0.1c0.2-0.1,0.4-0.1,0.6,0c0.2,0,0.3,0.2,0.3,0.3l0,0h0.7c0-0.3-0.1-0.6-0.4-0.7c-0.2-0.1-0.5-0.2-0.8-0.2
		s-0.5,0.1-0.7,0.2c-0.2,0.2-0.3,0.4-0.3,0.7s0.2,0.6,0.6,0.7l0.9,0.2c0.3,0.1,0.3,0.5-0.2,0.5c-0.3,0-0.5-0.1-0.6-0.4H45.8
		L45.8,36.2z M49,37h0.7v-2.7H49V37z M49,34h0.7v-0.6H49V34z M50.4,34.4v0.5h0.3v1.7c0,0.2,0.2,0.4,0.4,0.5c0.1,0,0.2,0,0.3,0
		s0.2,0,0.3-0.1v-0.4h-0.3c-0.1,0-0.1-0.1-0.1-0.2v-1.5h0.4v-0.5h-0.4v-0.7h-0.7v0.7H50.4L50.4,34.4z M52.2,34.3l0.9,2.7
		c0.1,0.2,0,0.4-0.1,0.5s-0.3,0.1-0.4,0.1v0.6c0.3,0,0.6,0,0.9-0.2c0.1-0.1,0.2-0.2,0.2-0.3l1.1-3.2h-0.7l-0.6,1.9l-0.6-2L52.2,34.3
		L52.2,34.3z"/>
	<path class="st0" d="M0,20.4C0.7,19.5,5.1,15,5.2,15h10.3v20c0,1.4,1.1,2.5,2.5,2.5c1.3,0,2.4-1,2.4-2.3l0,0V16
		c-0.1-0.5,0.3-0.9,0.8-1c0.1,0,0.1,0,0.2,0c4.8,0.3,4.8,0.3,9-4.1l0.5-0.8c0-0.2-0.1-0.4-0.2-0.6H10.1L16.3,3c2.2-2.2,3.7-3,6.3-3
		c2.3,0,3.5,0.5,5.7,2.4c1.5,1.4,3.6,2.1,5.6,2c0.8,0,1.6,0,2.6-0.1c0,0.1,0.1,0.2,0.1,0.3c0,0.2,0,0.2-3.8,4.1
		c-0.2,0.1-0.3,0.3-0.3,0.5c0,0.1,0,0.4,0,0.4h6.3c0.3,0.1-0.1,0.7-0.2,0.8l-6.2,6.5c-1.5,1.6-3.2,2.8-4.1,2.9
		c-2.1,0.6-2.3,0.7-2.5,1.6V35c0,4.1-3.2,7.5-7.4,7.5c-0.1,0-0.3,0-0.4,0c-4.4,0-7.8-3.1-7.8-7.3V20.4H0z"/>
</g>
</svg>
