<svg xmlns="http://www.w3.org/2000/svg" xmlns:xlink="http://www.w3.org/1999/xlink" viewBox="0 0 506.03 127.97"><defs><style>.cls-1{fill:none;}.cls-2{clip-path:url(#clip-path);}.cls-3{fill:#3b4096;}</style><clipPath id="clip-path" transform="translate(-7.28 -8.4)"><rect class="cls-1" width="523.16" height="155.73"/></clipPath></defs><title>アセット 1</title><g id="レイヤー_2" data-name="レイヤー 2"><g id="header"><g class="cls-2"><path class="cls-3" d="M33.31,37.7l54.91.68,12.11-15.62s-6.72.7-11.44-.48-7-3.3-10.17-6.78S63,1.74,51.89,14.93,33.31,37.7,33.31,37.7" transform="translate(-7.28 -8.4)"/><path class="cls-3" d="M7.28,69.13,19.85,53.72H47.08V115.1s-.2,6,6,6,6.14-6.3,6.14-6.3v-61l12.5,0c2,0,4.42-1.28,6.7-3.92,2.63-3,9.76-11.45,9.76-11.45H106L88,61.24c-1,1-6.9,7.88-15.54,7.88V116.4c0,8.52-5.24,20-19.6,20-12.82,0-18.61-12.06-18.61-18.73V69.13H7.28" transform="translate(-7.28 -8.4)"/><polygon class="cls-3" points="72.79 70.72 72.79 69.67 79.37 69.67 79.37 70.72 76.61 70.72 76.61 79.16 75.53 79.16 75.53 70.72 72.79 70.72"/><path class="cls-3" d="M86.88,80.94a4.67,4.67,0,0,1,.74-1.58,3.66,3.66,0,0,1,1.23-1.12,3.56,3.56,0,0,1,1.72-.41,3.6,3.6,0,0,1,1.72.41,3.65,3.65,0,0,1,1.23,1.12,4.86,4.86,0,0,1,.75,1.58,6.9,6.9,0,0,1,.25,1.87,7,7,0,0,1-.25,1.87,5.22,5.22,0,0,1-.75,1.59,3.69,3.69,0,0,1-1.23,1.1,3.48,3.48,0,0,1-1.72.4,3.44,3.44,0,0,1-1.72-.4,3.7,3.7,0,0,1-1.23-1.1,5,5,0,0,1-.74-1.59,6.84,6.84,0,0,1-.26-1.87,6.73,6.73,0,0,1,.26-1.87m1,3.28a4.41,4.41,0,0,0,.5,1.26,3,3,0,0,0,.89.9,2.72,2.72,0,0,0,2.57,0,3,3,0,0,0,.89-.9,3.87,3.87,0,0,0,.51-1.26,6.16,6.16,0,0,0,.15-1.41,6,6,0,0,0-.15-1.41,3.78,3.78,0,0,0-.51-1.26,2.72,2.72,0,0,0-.89-.89,2.51,2.51,0,0,0-2.57,0,2.76,2.76,0,0,0-.89.89,4.29,4.29,0,0,0-.5,1.26,5.75,5.75,0,0,0-.16,1.41,5.93,5.93,0,0,0,.16,1.41" transform="translate(-7.28 -8.4)"/><polygon class="cls-3" points="91.27 79.16 90.17 79.16 90.17 75.27 87 69.67 88.3 69.67 90.77 74.18 93.18 69.67 94.42 69.67 91.27 75.27 91.27 79.16"/><path class="cls-3" d="M105.59,78.07l3.22,9.49H107.6l-.9-2.86h-3.48l-.92,2.86h-1.11l3.2-9.49Zm.76,5.56L105,79.2h0l-1.39,4.43Z" transform="translate(-7.28 -8.4)"/><polygon class="cls-3" points="103.86 69.67 106.45 77.63 109.05 69.67 110.55 69.67 110.55 79.16 109.52 79.16 109.52 71.27 109.49 71.27 106.92 79.16 105.99 79.16 103.42 71.27 103.4 71.27 103.4 79.16 102.36 79.16 102.36 69.67 103.86 69.67"/><path class="cls-3" d="M123.09,78.07l3.22,9.49H125.1l-.89-2.86h-3.48l-.91,2.86h-1.12l3.2-9.49Zm.77,5.56-1.37-4.43h0l-1.39,4.43Z" transform="translate(-7.28 -8.4)"/><path class="cls-3" d="M84.54,93.49a2.36,2.36,0,0,1,1.89.74,3.09,3.09,0,0,1,.63,2.07,3.06,3.06,0,0,1-.63,2.06,2.26,2.26,0,0,1-1.89.73H82V103h-1.1V93.49ZM84.17,98A1.54,1.54,0,0,0,86,96.3a1.76,1.76,0,0,0-.43-1.3,1.79,1.79,0,0,0-1.37-.44H82V98Z" transform="translate(-7.28 -8.4)"/><path class="cls-3" d="M88.9,96.11v1.45h0a2.87,2.87,0,0,1,.87-1.23,1.94,1.94,0,0,1,1.31-.39v1.2a2.32,2.32,0,0,0-1,.19,1.56,1.56,0,0,0-.67.54,2.68,2.68,0,0,0-.37.87A5.76,5.76,0,0,0,89,99.92V103H88V96.11Z" transform="translate(-7.28 -8.4)"/><path class="cls-3" d="M95.61,102.52a2.45,2.45,0,0,1-1.69.6,2.41,2.41,0,0,1-1.24-.27,2.49,2.49,0,0,1-.88-.72,3.32,3.32,0,0,1-.54-1.15,6.28,6.28,0,0,1-.2-1.45,4.53,4.53,0,0,1,.2-1.43A3.33,3.33,0,0,1,91.85,97a2.81,2.81,0,0,1,.89-.76,2.43,2.43,0,0,1,1.12-.26,2.26,2.26,0,0,1,1.32.39,2.87,2.87,0,0,1,.85,1,4.12,4.12,0,0,1,.43,1.29,5.06,5.06,0,0,1,.1,1.29H92.09a3.2,3.2,0,0,0,.09.86,2.06,2.06,0,0,0,.34.71,1.83,1.83,0,0,0,.58.52,2,2,0,0,0,.84.17,1.52,1.52,0,0,0,1-.33,1.66,1.66,0,0,0,.53-1h1a2.8,2.8,0,0,1-.86,1.72m-.24-4.4A2.18,2.18,0,0,0,95,97.5a2.58,2.58,0,0,0-.53-.42,1.79,1.79,0,0,0-.67-.12,1.82,1.82,0,0,0-.69.12,1.9,1.9,0,0,0-.52.44,1.77,1.77,0,0,0-.35.62,2.49,2.49,0,0,0-.16.75h3.42a2.61,2.61,0,0,0-.15-.77" transform="translate(-7.28 -8.4)"/><path class="cls-3" d="M97,97.11v-1h1v-1a1.75,1.75,0,0,1,.42-1.28,1.63,1.63,0,0,1,1.22-.43l.32,0a2.32,2.32,0,0,1,.32.07v1a.83.83,0,0,0-.28-.09,1.31,1.31,0,0,0-.28,0,.89.89,0,0,0-.55.16.74.74,0,0,0-.19.61v1h1.16v1H99V103H98V97.11Z" transform="translate(-7.28 -8.4)"/><path class="cls-3" d="M105.2,102.52a2.45,2.45,0,0,1-1.69.6,2.42,2.42,0,0,1-1.24-.27,2.59,2.59,0,0,1-.88-.72,3.38,3.38,0,0,1-.54-1.15,6.29,6.29,0,0,1-.19-1.45,4.69,4.69,0,0,1,.21-1.43,3.57,3.57,0,0,1,.57-1.13,2.94,2.94,0,0,1,.89-.76,2.44,2.44,0,0,1,1.12-.26,2.28,2.28,0,0,1,1.32.39,2.81,2.81,0,0,1,.84,1,4,4,0,0,1,.44,1.29,5.7,5.7,0,0,1,.1,1.29H101.7a2.88,2.88,0,0,0,.08.86,2,2,0,0,0,.34.71,1.76,1.76,0,0,0,.59.52,1.92,1.92,0,0,0,.84.17,1.54,1.54,0,0,0,1-.33,1.66,1.66,0,0,0,.52-1h1a2.81,2.81,0,0,1-.87,1.72m-.24-4.4a2.48,2.48,0,0,0-.35-.62,3,3,0,0,0-.54-.42,1.82,1.82,0,0,0-.67-.12,1.77,1.77,0,0,0-.68.12,1.92,1.92,0,0,0-.87,1.05,2.14,2.14,0,0,0-.15.75h3.41a2.61,2.61,0,0,0-.15-.77" transform="translate(-7.28 -8.4)"/><path class="cls-3" d="M110.72,97.3a1.38,1.38,0,0,0-1-.34,1.52,1.52,0,0,0-1.46.82,2.58,2.58,0,0,0-.3.83,5.72,5.72,0,0,0-.09,1,4,4,0,0,0,.1.92,2.41,2.41,0,0,0,.3.8,1.71,1.71,0,0,0,.55.57,1.42,1.42,0,0,0,.79.2,1.5,1.5,0,0,0,1.13-.43,2.17,2.17,0,0,0,.5-1.24h1a3.35,3.35,0,0,1-.82,2,2.36,2.36,0,0,1-1.81.69,2.52,2.52,0,0,1-1.2-.25,2.18,2.18,0,0,1-.88-.71A3.39,3.39,0,0,1,107,101a5.38,5.38,0,0,1-.18-1.4,6.14,6.14,0,0,1,.18-1.45,3.34,3.34,0,0,1,.52-1.16,2.5,2.5,0,0,1,2.12-1.09,2.91,2.91,0,0,1,.95.15,2.32,2.32,0,0,1,.79.43,2.45,2.45,0,0,1,.56.75,3.13,3.13,0,0,1,.27,1h-1a1.84,1.84,0,0,0-.48-1" transform="translate(-7.28 -8.4)"/><path class="cls-3" d="M115.9,96.11v1h-1.19v4.26a1.47,1.47,0,0,0,0,.31.29.29,0,0,0,.11.18.41.41,0,0,0,.22.09h.83v1h-.76a2.1,2.1,0,0,1-.65-.07.69.69,0,0,1-.44-.22.94.94,0,0,1-.26-.44,3.59,3.59,0,0,1-.07-.77V97.11h-1v-1h1v-2h1v2Z" transform="translate(-7.28 -8.4)"/><path class="cls-3" d="M121,103v-1.1h0a2.11,2.11,0,0,1-.79.93,2,2,0,0,1-1.14.3,2.72,2.72,0,0,1-1-.16,1.67,1.67,0,0,1-.63-.53,2,2,0,0,1-.33-.79,4.46,4.46,0,0,1-.1-1V96.11h1v4.64a1.46,1.46,0,0,0,.33,1,1.08,1.08,0,0,0,.88.37,1.7,1.7,0,0,0,.78-.16,1.54,1.54,0,0,0,.55-.44,2,2,0,0,0,.33-.7,3.17,3.17,0,0,0,.11-.84V96.11h1V103Z" transform="translate(-7.28 -8.4)"/><path class="cls-3" d="M127.5,103.12a.79.79,0,0,1-.61-.23,1.26,1.26,0,0,1-.22-.81,2.51,2.51,0,0,1-.94.81,2.78,2.78,0,0,1-1.16.23,3.68,3.68,0,0,1-.76-.09,1.45,1.45,0,0,1-.63-.34,1.56,1.56,0,0,1-.43-.6,2.21,2.21,0,0,1-.16-.87,2.24,2.24,0,0,1,.18-1,1.64,1.64,0,0,1,.46-.61,1.67,1.67,0,0,1,.64-.34c.25-.08.49-.15.75-.21a7.56,7.56,0,0,1,.77-.13,4.1,4.1,0,0,0,.63-.13,1.58,1.58,0,0,0,.44-.24.77.77,0,0,0,.15-.49,1.43,1.43,0,0,0-.11-.61,1,1,0,0,0-.31-.34,1.23,1.23,0,0,0-.43-.16l-.47,0a1.91,1.91,0,0,0-1,.26,1.18,1.18,0,0,0-.45,1h-1a2.79,2.79,0,0,1,.23-1.08,2.14,2.14,0,0,1,.55-.72,2,2,0,0,1,.8-.36,3.17,3.17,0,0,1,.94-.14,5.41,5.41,0,0,1,.81.07,1.63,1.63,0,0,1,.72.28,1.36,1.36,0,0,1,.52.57,2.08,2.08,0,0,1,.19,1v3.53a3.17,3.17,0,0,0,0,.59c0,.11.12.17.27.17a.71.71,0,0,0,.3-.06V103a1.38,1.38,0,0,1-.7.16m-1.37-3.44-.63.1c-.22,0-.44.07-.66.11a1.8,1.8,0,0,0-.59.19,1,1,0,0,0-.44.39,1.15,1.15,0,0,0-.17.67,1.05,1.05,0,0,0,.1.47,1.1,1.1,0,0,0,.26.31,1.26,1.26,0,0,0,.37.16,1.55,1.55,0,0,0,.44.05,2.25,2.25,0,0,0,.83-.14,2.08,2.08,0,0,0,.56-.39,1.86,1.86,0,0,0,.32-.5,1.48,1.48,0,0,0,.11-.52V99.44a1.22,1.22,0,0,1-.48.24" transform="translate(-7.28 -8.4)"/><rect class="cls-3" x="121.88" y="85.1" width="0.98" height="9.49"/><path class="cls-3" d="M86.66,117.71a3.08,3.08,0,0,1-2.39.92,3.5,3.5,0,0,1-2.48-.87,3.79,3.79,0,0,1-.89-2.78v-6H82v6a2.88,2.88,0,0,0,.58,1.94,2.19,2.19,0,0,0,1.7.66,2,2,0,0,0,1.59-.66,3,3,0,0,0,.55-1.94v-6h1.1v6a3.9,3.9,0,0,1-.85,2.73" transform="translate(-7.28 -8.4)"/><path class="cls-3" d="M89.56,111.55v1.09h0a2.06,2.06,0,0,1,1.94-1.25,2.17,2.17,0,0,1,1,.18,1.53,1.53,0,0,1,.63.52,2.08,2.08,0,0,1,.34.78,5,5,0,0,1,.1,1v4.52h-1v-4.66a1.43,1.43,0,0,0-.32-1,1,1,0,0,0-.88-.39,1.84,1.84,0,0,0-.78.16A1.39,1.39,0,0,0,90,113a2,2,0,0,0-.33.68,3.15,3.15,0,0,0-.12.84v3.89h-1v-6.86Z" transform="translate(-7.28 -8.4)"/><path class="cls-3" d="M94.86,108.93h1v1.38h-1Zm1,9.48h-1v-6.86h1Z" transform="translate(-7.28 -8.4)"/><polygon class="cls-3" points="91.49 110.02 89.27 103.16 90.38 103.16 92.04 108.87 92.06 108.87 93.69 103.16 94.71 103.16 92.53 110.02 91.49 110.02"/><path class="cls-3" d="M106.88,118a2.47,2.47,0,0,1-1.68.56,2.79,2.79,0,0,1-1.24-.24,2.6,2.6,0,0,1-.88-.74,3.34,3.34,0,0,1-.53-1.16,6,6,0,0,1-.21-1.45,4.69,4.69,0,0,1,.21-1.43,3.72,3.72,0,0,1,.58-1.13,2.56,2.56,0,0,1,.89-.74,2.2,2.2,0,0,1,1.12-.26,2.18,2.18,0,0,1,1.32.38,2.7,2.7,0,0,1,.84,1,3.83,3.83,0,0,1,.44,1.29,6.82,6.82,0,0,1,.1,1.32h-4.46a3.21,3.21,0,0,0,.09.85,2,2,0,0,0,.33.71,1.68,1.68,0,0,0,.59.51,2,2,0,0,0,.84.18,1.47,1.47,0,0,0,1-.33,1.58,1.58,0,0,0,.52-1h1a2.83,2.83,0,0,1-.86,1.76m-.24-4.42a2.11,2.11,0,0,0-.36-.61,1.49,1.49,0,0,0-.53-.41,1.26,1.26,0,0,0-.67-.16,1.31,1.31,0,0,0-.69.16,1.62,1.62,0,0,0-.52.41,2.27,2.27,0,0,0-.35.63,2.89,2.89,0,0,0-.14.74h3.42a2.83,2.83,0,0,0-.16-.76" transform="translate(-7.28 -8.4)"/><path class="cls-3" d="M109.73,111.55V113h0a2.84,2.84,0,0,1,.88-1.24,2,2,0,0,1,1.32-.38v1.2a2.46,2.46,0,0,0-1,.18,1.58,1.58,0,0,0-.67.55,2.31,2.31,0,0,0-.37.85,5.34,5.34,0,0,0-.11,1.19v3.05h-1v-6.86Z" transform="translate(-7.28 -8.4)"/><path class="cls-3" d="M113.2,116.88a1.11,1.11,0,0,0,.36.41,1,1,0,0,0,.5.21,1.89,1.89,0,0,0,.59.08,1.61,1.61,0,0,0,.48-.06,2,2,0,0,0,.47-.12.92.92,0,0,0,.49-.85.71.71,0,0,0-.29-.64,1.75,1.75,0,0,0-.72-.38c-.29-.1-.6-.17-.94-.25a4.25,4.25,0,0,1-.94-.32,2,2,0,0,1-.73-.58,1.65,1.65,0,0,1-.28-1,1.83,1.83,0,0,1,.2-.89,1.9,1.9,0,0,1,.52-.61,2,2,0,0,1,.71-.32,2.38,2.38,0,0,1,.79-.12,3.41,3.41,0,0,1,.94.11,1.68,1.68,0,0,1,.76.33,1.86,1.86,0,0,1,.52.65,3,3,0,0,1,.23,1h-1a1.25,1.25,0,0,0-.15-.55,1.13,1.13,0,0,0-.32-.35,1.26,1.26,0,0,0-.44-.19,1.48,1.48,0,0,0-.47-.06,2.18,2.18,0,0,0-.45,0,1.08,1.08,0,0,0-.4.13.9.9,0,0,0-.3.26.75.75,0,0,0-.11.44.69.69,0,0,0,.18.49,1.28,1.28,0,0,0,.45.32,4.69,4.69,0,0,0,.62.21l.69.17a3.83,3.83,0,0,1,.73.23,1.89,1.89,0,0,1,.62.36,1.59,1.59,0,0,1,.44.54,1.82,1.82,0,0,1,.16.82,2.14,2.14,0,0,1-.22,1,2,2,0,0,1-.59.67,2.29,2.29,0,0,1-.82.36,4.54,4.54,0,0,1-.9.08,3.59,3.59,0,0,1-.94-.1,2,2,0,0,1-.8-.4,1.77,1.77,0,0,1-.55-.71,2.92,2.92,0,0,1-.24-1.1h1a1.39,1.39,0,0,0,.15.64" transform="translate(-7.28 -8.4)"/><path class="cls-3" d="M118,108.93h1v1.38h-1Zm1,9.48h-1v-6.86h1Z" transform="translate(-7.28 -8.4)"/><path class="cls-3" d="M123.08,111.55v1H121.9v4.25a1.32,1.32,0,0,0,0,.32.87.87,0,0,0,.1.2.51.51,0,0,0,.23.07,3,3,0,0,0,.37,0h.45v1h-.75a5.42,5.42,0,0,1-.65,0,1.41,1.41,0,0,1-.45-.23.94.94,0,0,1-.25-.47,3.25,3.25,0,0,1-.08-.75v-4.37h-1v-1h1v-2.06h1v2.06Z" transform="translate(-7.28 -8.4)"/><path class="cls-3" d="M126.16,120.16a1.88,1.88,0,0,1-.36.57,1,1,0,0,1-.45.31,1.42,1.42,0,0,1-.57.11,1.34,1.34,0,0,1-.35,0,1.94,1.94,0,0,1-.34-.09v-1a1.42,1.42,0,0,0,.28.09.74.74,0,0,0,.78-.09,1.37,1.37,0,0,0,.33-.48l.39-1.14-2.36-6.83h1.1l1.74,5.62h0l1.67-5.62h1l-2.59,7.76a5.92,5.92,0,0,1-.34.84" transform="translate(-7.28 -8.4)"/></g><path class="cls-3" d="M176.29,52.86a33.59,33.59,0,0,0-.3-4H186.2a31,31,0,0,0-.3,4h15.68a64.46,64.46,0,0,0,7.3-.28,37.9,37.9,0,0,0-.24,5.12v5.67a31.6,31.6,0,0,0,.3,5.18h-9.18V61.13H163.35v7.43h-9.17a37,37,0,0,0,.3-5.26V57.7a51.25,51.25,0,0,0-.25-5.12,63.29,63.29,0,0,0,7.23.28ZM157.09,94.7c0-3.23-.06-5-.25-7.57a52.16,52.16,0,0,0,6.5.28H199.7a52.75,52.75,0,0,0,6.5-.28c-.18,2.46-.24,4.34-.24,7.57v12.2a83.16,83.16,0,0,0,.3,8.34H197v-2.11H166v2.11h-9.24c.18-2.46.3-5.05.3-8.34Zm44.73-14.23a37.64,37.64,0,0,0,.18,5.18c-2.13-.14-4.07-.21-6-.21H167.12c-2.07,0-3.83.07-6,.21.12-1.47.18-2.53.18-5.18V76.06c0-2.46-.06-3-.18-5.11,1.94.14,3.59.21,6,.21H196c2.43,0,4.07-.07,6-.21a40.39,40.39,0,0,0-.18,5.11Zm-36.9-17.73a36.57,36.57,0,0,0,4.19.21h24.74a38.82,38.82,0,0,0,4.32-.21v6.73c-1.52-.14-2.79-.21-4.32-.21h-24.8a41.25,41.25,0,0,0-4.14.21ZM166,96.8h10.7V94.48H166Zm0,8.62h10.7V103H166Zm4.13-28.25v2.24h22.79V77.17Zm15.5,19.62H197V94.48H185.66Zm0,8.62H197V103H185.66Z" transform="translate(-7.28 -8.4)"/><path class="cls-3" d="M237.21,57.63a61.21,61.21,0,0,0-.43-7.64h10.7a61.23,61.23,0,0,0-.42,7.64V100h11.79V69c0-2.52-.12-4.62-.3-6.86h10.27c-.18,2.45-.31,4.62-.31,6.93V105c0,3.37.12,6.45.43,9.81H258.84v-4.13H226.27v4.13h-10c.24-2.59.3-5.26.3-9.74V69.12c0-2.31-.12-4.69-.3-7h10.21c-.18,2-.24,3.64-.24,6.93V100h10.94Z" transform="translate(-7.28 -8.4)"/><path class="cls-3" d="M307.66,106.68a74.75,74.75,0,0,0,.37,8.69h-9.91a77.43,77.43,0,0,0,.36-8.69v-11h-10l7.17,3.78a50.48,50.48,0,0,1-14.59,15.34,46.37,46.37,0,0,0-6.38-8.27,30.85,30.85,0,0,0,9.42-7.07,23.32,23.32,0,0,0,3-3.78h-2.74a58,58,0,0,0-6.68.27,63.2,63.2,0,0,0,.3-7.77v-25a63.61,63.61,0,0,0-.3-7.71h9.54c-.18,2.11-.24,3.86-.24,7.57V86.57h36.53a45.93,45.93,0,0,0,7.54-.36V96.1a54.71,54.71,0,0,0-7.48-.42h-4.8c3.77,4.76,6.44,6.87,13.07,10.16a54.74,54.74,0,0,0-5.9,9,46.1,46.1,0,0,1-8-6.37,54.53,54.53,0,0,1-7.35-8.84l6.75-3.92h-9.66Zm18-28.31c0,2.46.06,4.41.18,6.1-1.52-.14-3.46-.21-5.59-.21H295.57c-2.19,0-4.14.07-5.59.21.12-2,.18-3.71.18-6.17V57.13c0-2.31-.06-4.27-.18-6,1.46.14,3.28.21,5.71.21H320.3c2.31,0,4-.07,5.53-.21-.12,1.9-.18,3.64-.18,6.1ZM299.09,61h17.44V58.61H299.09Zm0,8.27h17.44V66.88H299.09Zm0,8.34h17.44V75.14H299.09Z" transform="translate(-7.28 -8.4)"/><path class="cls-3" d="M365.23,102.61a185.65,185.65,0,0,0,6.38-22.35c1.28-5.81,1.64-7.63,1.83-10.3l10.64,3.3c-.61,2.1-.61,2.1-2.31,8.54-1.88,7.15-3.65,12.75-6.57,20.81h8.14a60.65,60.65,0,0,0,8.75-.49v11.14a62.73,62.73,0,0,0-8.75-.49H344.63a64.1,64.1,0,0,0-8.88.49V102.12a61.43,61.43,0,0,0,8.88.49Zm-6.57-48a31.21,31.21,0,0,0-.37-5h10.46a30.46,30.46,0,0,0-.37,5V58.4h13.07a66.74,66.74,0,0,0,8.63-.5V69a59.13,59.13,0,0,0-8.63-.49H346.33a58.82,58.82,0,0,0-8.57.49V57.91a65.73,65.73,0,0,0,8.57.5h12.34ZM353.08,70.1a250.41,250.41,0,0,1,7.23,27.05L350.64,101A167.68,167.68,0,0,0,343.84,74Z" transform="translate(-7.28 -8.4)"/><path class="cls-3" d="M429.67,76a44.45,44.45,0,0,0,8.88,16.54A43.79,43.79,0,0,0,454.28,104a47.21,47.21,0,0,0-6.08,11.28,52.44,52.44,0,0,1-13.55-10.8,49.8,49.8,0,0,1-9.54-15.63,45.71,45.71,0,0,1-6.93,12.68,48.51,48.51,0,0,1-10.33,10,51.77,51.77,0,0,1-6.32,3.71,49.4,49.4,0,0,0-5.9-10.51c7.23-3.23,11.91-6.73,16-12A31.94,31.94,0,0,0,418.3,76H406.09a51.64,51.64,0,0,0-8.57.43V64.63a64.23,64.23,0,0,0,8.51.43h13.07c.06-2.81.06-4.41.06-6.73a47.18,47.18,0,0,0-.42-7.5h11.12c-.37,2.73-.37,2.73-.48,11.84v2.38h13.86a68.61,68.61,0,0,0,8.57-.43V76.41a59.7,59.7,0,0,0-8.51-.43Z" transform="translate(-7.28 -8.4)"/><path class="cls-3" d="M467.49,59.59a52.13,52.13,0,0,0-3.65-7.21l8.93-2.11a77.07,77.07,0,0,1,4.62,9.32h4.07a46.47,46.47,0,0,0-3.16-8.13l9.24-1.9a64.53,64.53,0,0,1,3.59,10h3.59a54,54,0,0,0,3.77-9.74l9.3,2.31c-.85,2.17-2.06,4.83-3.4,7.43h1.21a67.81,67.81,0,0,0,7.6-.28,49.8,49.8,0,0,0-.25,5.89V73a53.05,53.05,0,0,0,.31,5.74H504V68.84H467.67v9.87h-9.24a37.93,37.93,0,0,0,.3-5.81V65.19a52.16,52.16,0,0,0-.25-5.89,67.48,67.48,0,0,0,7.48.28ZM491.13,107c0,6.8-2.07,8.33-11.49,8.33-1,0-2.67-.06-5.53-.2a45.9,45.9,0,0,0-2.67-10.3c3.34.34,5.65.56,7.35.56,2.43,0,2.86-.21,2.86-1.47V97.22H466.82a65.62,65.62,0,0,0-8.39.42V87a57.76,57.76,0,0,0,8.26.5h15a25.41,25.41,0,0,0-.18-3.3h3.34a22.83,22.83,0,0,0,4.14-3.57H476.36a52.92,52.92,0,0,0-6.44.28V71.43a55.36,55.36,0,0,0,6.5.28h18.17a25.75,25.75,0,0,0,4.8-.28l4.44,5.81c-.67.64-.92.91-1.83,1.9a106.92,106.92,0,0,1-8.51,8.34h11.25a67.15,67.15,0,0,0,8.57-.5V97.64a68.36,68.36,0,0,0-8.69-.42H491.13Z" transform="translate(-7.28 -8.4)"/></g></g></svg>